<?xml version="1.0" encoding="utf-8"?>
<!-- Generator: Adobe Illustrator 26.5.0, SVG Export Plug-In . SVG Version: 6.00 Build 0)  -->
<svg version="1.1" id="Layer_1" xmlns="http://www.w3.org/2000/svg" xmlns:xlink="http://www.w3.org/1999/xlink" x="0px" y="0px"
	 viewBox="0 0 78.6 110.6" style="enable-background:new 0 0 78.6 110.6;" xml:space="preserve">
<style type="text/css">
	.st0{fill:#E6A329;}
	.st1{fill:#F1BF22;}
	.st2{fill:#FFFFFF;}
	.st3{fill:#EBEBEB;}
</style>
<path class="st0" d="M78.6,21.7H0l7.4,79.9l31.9,9.1l31.9-9.1L78.6,21.7z"/>
<path class="st1" d="M39.3,28.2v75.6l25.9-7.3l6.3-68.3L39.3,28.2z"/>
<path class="st2" d="M59.8,38H20.1l-2.8,29.9l0.1-0.2h33.8l-1.1,12.7l-10.8,3.1l-10.9-3.2l-0.7-7.7h-9.9l1.4,15.3l20.1,5.7l20.1-5.7
	l2.8-30H26.3l0.5-10h24.9l0.4,5.7h10L59.8,38z"/>
<path class="st3" d="M39.3,38H20.1l-2.8,29.9l0.1-0.2h21.9v-9.8H27.7l0.5-10h11.1V38z M27.7,72.6h-9.9l1.4,15.3l20.1,5.7V83.5
	l-10.9-3.2L27.7,72.6z"/>
</svg>
